<mxfile host="Electron" modified="2024-01-30T03:57:00.812Z" agent="Mozilla/5.0 (Windows NT 10.0; Win64; x64) AppleWebKit/537.36 (KHTML, like Gecko) draw.io/21.7.5 Chrome/114.0.5735.289 Electron/25.8.1 Safari/537.36" etag="O_1HlLonq0RrZO0VWCOW" version="21.7.5" type="device">
  <diagram name="第 1 页" id="akJ0fcTaUh_Lfy5anjCc">
    <mxGraphModel dx="1148" dy="713" grid="1" gridSize="10" guides="1" tooltips="1" connect="1" arrows="1" fold="1" page="1" pageScale="1" pageWidth="827" pageHeight="1169" math="0" shadow="0">
      <root>
        <mxCell id="0" />
        <mxCell id="1" parent="0" />
        <mxCell id="pnQwtb9DpmezKh93gruR-9" value="" style="rounded=1;whiteSpace=wrap;html=1;arcSize=4;" vertex="1" parent="1">
          <mxGeometry x="116" width="360" height="260" as="geometry" />
        </mxCell>
        <mxCell id="pnQwtb9DpmezKh93gruR-4" value="Agent 1" style="rounded=1;whiteSpace=wrap;html=1;" vertex="1" parent="1">
          <mxGeometry x="366" y="105" width="90" height="30" as="geometry" />
        </mxCell>
        <mxCell id="pnQwtb9DpmezKh93gruR-5" value="Agent 2" style="rounded=1;whiteSpace=wrap;html=1;" vertex="1" parent="1">
          <mxGeometry x="366" y="145" width="90" height="30" as="geometry" />
        </mxCell>
        <mxCell id="pnQwtb9DpmezKh93gruR-6" value="Agent 3" style="rounded=1;whiteSpace=wrap;html=1;" vertex="1" parent="1">
          <mxGeometry x="366" y="185" width="90" height="30" as="geometry" />
        </mxCell>
        <mxCell id="pnQwtb9DpmezKh93gruR-10" value="&lt;span style=&quot;color: rgb(0, 0, 0); font-family: Helvetica; font-size: 12px; font-style: normal; font-variant-ligatures: normal; font-variant-caps: normal; font-weight: 400; letter-spacing: normal; orphans: 2; text-indent: 0px; text-transform: none; widows: 2; word-spacing: 0px; -webkit-text-stroke-width: 0px; text-decoration-thickness: initial; text-decoration-style: initial; text-decoration-color: initial; float: none; display: inline !important;&quot;&gt;Local&lt;/span&gt;" style="text;whiteSpace=wrap;html=1;align=center;labelBackgroundColor=none;verticalAlign=middle;" vertex="1" parent="1">
          <mxGeometry x="230" y="241" width="110" height="20" as="geometry" />
        </mxCell>
        <mxCell id="pnQwtb9DpmezKh93gruR-11" value="Master&lt;br&gt;Matrix&lt;br&gt;&lt;br&gt;&lt;br&gt;&lt;font style=&quot;font-size: 10px;&quot;&gt;(Reuse &lt;br&gt;GPT-Academic)&lt;/font&gt;" style="rounded=1;whiteSpace=wrap;html=1;arcSize=0;" vertex="1" parent="1">
          <mxGeometry x="176" y="90" width="80" height="140" as="geometry" />
        </mxCell>
        <mxCell id="pnQwtb9DpmezKh93gruR-16" value="AgentCraft (Unreal Engine 5)" style="rounded=1;whiteSpace=wrap;html=1;" vertex="1" parent="1">
          <mxGeometry x="126" y="10" width="180" height="50" as="geometry" />
        </mxCell>
        <mxCell id="pnQwtb9DpmezKh93gruR-17" value="" style="endArrow=classic;startArrow=classic;html=1;rounded=0;exitX=0.5;exitY=0;exitDx=0;exitDy=0;entryX=0.5;entryY=1;entryDx=0;entryDy=0;" edge="1" parent="1" source="pnQwtb9DpmezKh93gruR-11" target="pnQwtb9DpmezKh93gruR-16">
          <mxGeometry width="50" height="50" relative="1" as="geometry">
            <mxPoint x="256" y="60" as="sourcePoint" />
            <mxPoint x="166" y="60" as="targetPoint" />
          </mxGeometry>
        </mxCell>
        <mxCell id="pnQwtb9DpmezKh93gruR-18" value="&lt;span style=&quot;color: rgba(0, 0, 0, 0.87); font-family: Roboto, -apple-system, BlinkMacSystemFont, Helvetica, Arial, sans-serif; font-size: 16px; font-style: normal; font-variant-ligatures: normal; font-variant-caps: normal; font-weight: 400; letter-spacing: normal; orphans: 2; text-indent: 0px; text-transform: none; widows: 2; word-spacing: 0px; -webkit-text-stroke-width: 0px; text-decoration-thickness: initial; text-decoration-style: initial; text-decoration-color: initial; float: none; display: inline !important;&quot;&gt;ASGI&lt;span&gt;&amp;nbsp;&lt;/span&gt;&lt;/span&gt;" style="text;whiteSpace=wrap;html=1;align=center;fillColor=#dae8fc;strokeColor=#6c8ebf;rotation=90;verticalAlign=middle;labelBackgroundColor=none;" vertex="1" parent="1">
          <mxGeometry x="201" y="150.32" width="130" height="19.37" as="geometry" />
        </mxCell>
        <mxCell id="pnQwtb9DpmezKh93gruR-12" value="" style="endArrow=classic;startArrow=classic;html=1;rounded=0;" edge="1" parent="1">
          <mxGeometry width="50" height="50" relative="1" as="geometry">
            <mxPoint x="366" y="120" as="sourcePoint" />
            <mxPoint x="276" y="120" as="targetPoint" />
          </mxGeometry>
        </mxCell>
        <mxCell id="pnQwtb9DpmezKh93gruR-13" value="" style="endArrow=classic;startArrow=classic;html=1;rounded=0;" edge="1" parent="1">
          <mxGeometry width="50" height="50" relative="1" as="geometry">
            <mxPoint x="366" y="159.71" as="sourcePoint" />
            <mxPoint x="276" y="159.71" as="targetPoint" />
          </mxGeometry>
        </mxCell>
        <mxCell id="pnQwtb9DpmezKh93gruR-14" value="" style="endArrow=classic;startArrow=classic;html=1;rounded=0;" edge="1" parent="1">
          <mxGeometry width="50" height="50" relative="1" as="geometry">
            <mxPoint x="366" y="199.71" as="sourcePoint" />
            <mxPoint x="276" y="199.71" as="targetPoint" />
          </mxGeometry>
        </mxCell>
        <mxCell id="pnQwtb9DpmezKh93gruR-25" value="" style="rounded=1;whiteSpace=wrap;html=1;arcSize=3;" vertex="1" parent="1">
          <mxGeometry x="350" y="340" width="360" height="260" as="geometry" />
        </mxCell>
        <mxCell id="pnQwtb9DpmezKh93gruR-26" value="" style="rounded=1;whiteSpace=wrap;html=1;arcSize=4;" vertex="1" parent="1">
          <mxGeometry x="116" y="340" width="230" height="260" as="geometry" />
        </mxCell>
        <mxCell id="pnQwtb9DpmezKh93gruR-28" value="Agent 1" style="rounded=1;whiteSpace=wrap;html=1;" vertex="1" parent="1">
          <mxGeometry x="600" y="445" width="90" height="30" as="geometry" />
        </mxCell>
        <mxCell id="pnQwtb9DpmezKh93gruR-29" value="Agent 2" style="rounded=1;whiteSpace=wrap;html=1;" vertex="1" parent="1">
          <mxGeometry x="600" y="485" width="90" height="30" as="geometry" />
        </mxCell>
        <mxCell id="pnQwtb9DpmezKh93gruR-30" value="Agent 3" style="rounded=1;whiteSpace=wrap;html=1;" vertex="1" parent="1">
          <mxGeometry x="600" y="525" width="90" height="30" as="geometry" />
        </mxCell>
        <mxCell id="pnQwtb9DpmezKh93gruR-31" value="&lt;span style=&quot;color: rgb(0, 0, 0); font-family: Helvetica; font-size: 12px; font-style: normal; font-variant-ligatures: normal; font-variant-caps: normal; font-weight: 400; letter-spacing: normal; orphans: 2; text-indent: 0px; text-transform: none; widows: 2; word-spacing: 0px; -webkit-text-stroke-width: 0px; text-decoration-thickness: initial; text-decoration-style: initial; text-decoration-color: initial; float: none; display: inline !important;&quot;&gt;Remote Server&lt;/span&gt;" style="text;whiteSpace=wrap;html=1;align=center;labelBackgroundColor=none;verticalAlign=middle;" vertex="1" parent="1">
          <mxGeometry x="173" y="576" width="110" height="30" as="geometry" />
        </mxCell>
        <mxCell id="pnQwtb9DpmezKh93gruR-32" value="&lt;span style=&quot;color: rgb(0, 0, 0); font-family: Helvetica; font-size: 12px; font-style: normal; font-variant-ligatures: normal; font-variant-caps: normal; font-weight: 400; letter-spacing: normal; orphans: 2; text-indent: 0px; text-transform: none; widows: 2; word-spacing: 0px; -webkit-text-stroke-width: 0px; text-decoration-thickness: initial; text-decoration-style: initial; text-decoration-color: initial; float: none; display: inline !important;&quot;&gt;Local&lt;/span&gt;" style="text;whiteSpace=wrap;html=1;align=center;labelBackgroundColor=none;verticalAlign=middle;" vertex="1" parent="1">
          <mxGeometry x="475" y="581" width="110" height="20" as="geometry" />
        </mxCell>
        <mxCell id="pnQwtb9DpmezKh93gruR-33" value="Master&lt;br&gt;Matrix&lt;br&gt;&lt;br&gt;&lt;br&gt;&lt;font style=&quot;font-size: 10px;&quot;&gt;(Reuse &lt;br&gt;GPT-Academic)&lt;/font&gt;" style="rounded=1;whiteSpace=wrap;html=1;arcSize=0;" vertex="1" parent="1">
          <mxGeometry x="410" y="430" width="80" height="140" as="geometry" />
        </mxCell>
        <mxCell id="pnQwtb9DpmezKh93gruR-35" value="AgentCraft (Unreal Engine 5)" style="rounded=1;whiteSpace=wrap;html=1;" vertex="1" parent="1">
          <mxGeometry x="360" y="350" width="180" height="50" as="geometry" />
        </mxCell>
        <mxCell id="pnQwtb9DpmezKh93gruR-36" value="" style="endArrow=classic;startArrow=classic;html=1;rounded=0;exitX=0.5;exitY=0;exitDx=0;exitDy=0;entryX=0.5;entryY=1;entryDx=0;entryDy=0;" edge="1" source="pnQwtb9DpmezKh93gruR-33" target="pnQwtb9DpmezKh93gruR-35" parent="1">
          <mxGeometry width="50" height="50" relative="1" as="geometry">
            <mxPoint x="490" y="400" as="sourcePoint" />
            <mxPoint x="400" y="400" as="targetPoint" />
          </mxGeometry>
        </mxCell>
        <mxCell id="pnQwtb9DpmezKh93gruR-37" value="&lt;span style=&quot;color: rgba(0, 0, 0, 0.87); font-family: Roboto, -apple-system, BlinkMacSystemFont, Helvetica, Arial, sans-serif; font-size: 16px; font-style: normal; font-variant-ligatures: normal; font-variant-caps: normal; font-weight: 400; letter-spacing: normal; orphans: 2; text-indent: 0px; text-transform: none; widows: 2; word-spacing: 0px; -webkit-text-stroke-width: 0px; text-decoration-thickness: initial; text-decoration-style: initial; text-decoration-color: initial; float: none; display: inline !important;&quot;&gt;ASGI&lt;span&gt;&amp;nbsp;&lt;/span&gt;&lt;/span&gt;" style="text;whiteSpace=wrap;html=1;align=center;fillColor=#dae8fc;strokeColor=#6c8ebf;rotation=90;verticalAlign=middle;labelBackgroundColor=none;" vertex="1" parent="1">
          <mxGeometry x="431" y="490.32" width="130" height="19.37" as="geometry" />
        </mxCell>
        <mxCell id="pnQwtb9DpmezKh93gruR-39" value="" style="endArrow=classic;startArrow=classic;html=1;rounded=0;" edge="1" parent="1">
          <mxGeometry width="50" height="50" relative="1" as="geometry">
            <mxPoint x="598" y="460" as="sourcePoint" />
            <mxPoint x="508" y="460" as="targetPoint" />
          </mxGeometry>
        </mxCell>
        <mxCell id="pnQwtb9DpmezKh93gruR-40" value="" style="endArrow=classic;startArrow=classic;html=1;rounded=0;" edge="1" parent="1">
          <mxGeometry width="50" height="50" relative="1" as="geometry">
            <mxPoint x="598" y="499.86" as="sourcePoint" />
            <mxPoint x="508" y="499.86" as="targetPoint" />
          </mxGeometry>
        </mxCell>
        <mxCell id="pnQwtb9DpmezKh93gruR-41" value="" style="endArrow=classic;startArrow=classic;html=1;rounded=0;" edge="1" parent="1">
          <mxGeometry width="50" height="50" relative="1" as="geometry">
            <mxPoint x="598" y="539.71" as="sourcePoint" />
            <mxPoint x="508" y="539.71" as="targetPoint" />
          </mxGeometry>
        </mxCell>
        <mxCell id="pnQwtb9DpmezKh93gruR-43" value="" style="endArrow=classic;startArrow=classic;html=1;rounded=0;entryX=0.887;entryY=-0.048;entryDx=0;entryDy=0;exitX=0;exitY=0.5;exitDx=0;exitDy=0;strokeColor=#FF0000;entryPerimeter=0;" edge="1" target="pnQwtb9DpmezKh93gruR-54" parent="1">
          <mxGeometry width="50" height="50" relative="1" as="geometry">
            <mxPoint x="410" y="550" as="sourcePoint" />
            <mxPoint x="234.68499999999995" y="550.0050000000001" as="targetPoint" />
          </mxGeometry>
        </mxCell>
        <mxCell id="pnQwtb9DpmezKh93gruR-44" value="只在一台机器上运行" style="text;whiteSpace=wrap;html=1;align=center;labelBackgroundColor=none;verticalAlign=middle;" vertex="1" parent="1">
          <mxGeometry x="167" y="270" width="110" height="20" as="geometry" />
        </mxCell>
        <mxCell id="pnQwtb9DpmezKh93gruR-45" value="允许在远程服务器上&lt;br&gt;创建智能体" style="text;whiteSpace=wrap;html=1;align=center;labelBackgroundColor=none;verticalAlign=middle;" vertex="1" parent="1">
          <mxGeometry x="154" y="620" width="136" height="40" as="geometry" />
        </mxCell>
        <mxCell id="pnQwtb9DpmezKh93gruR-46" value="1. Matrix establish FastAPI websocket&lt;br&gt;2. Begin new process `subprocess.Popen` with port of ASGI&lt;br&gt;3. Agent connect&lt;br&gt;4. Agent Read/Write/Wait" style="rounded=1;whiteSpace=wrap;html=1;labelBorderColor=none;strokeColor=#0e8088;fillColor=#b0e3e6;arcSize=0;align=left;" vertex="1" parent="1">
          <mxGeometry x="486" width="330" height="120" as="geometry" />
        </mxCell>
        <mxCell id="pnQwtb9DpmezKh93gruR-48" value="1. Matrix establish FastAPI websocket&lt;br&gt;2. Remote server establish&amp;nbsp;FastAPI&amp;nbsp;websocket&lt;br&gt;3. For each agent create request:&lt;br&gt;&lt;span style=&quot;&quot;&gt;&lt;span style=&quot;&quot;&gt;&amp;nbsp;&amp;nbsp;&amp;nbsp;&amp;nbsp;&lt;/span&gt;&lt;/span&gt;3.1. Connect to remote server ASGI via websocket&lt;br&gt;&lt;span style=&quot;&quot;&gt;&lt;span style=&quot;&quot;&gt;&amp;nbsp;&amp;nbsp;&amp;nbsp;&amp;nbsp;&lt;/span&gt;&lt;/span&gt;3.2. Send special command to create and proxy a agent&lt;br&gt;&lt;span style=&quot;&quot;&gt;&lt;span style=&quot;&quot;&gt;&amp;nbsp;&amp;nbsp;&amp;nbsp;&amp;nbsp;&lt;/span&gt;&lt;/span&gt;3.3. Remote Matrix create agent, give agent a special tag, so that all its messages are delivered to local Matrix.&lt;br&gt;&amp;nbsp; &amp;nbsp; 3.4. Maintain websocket connect for future messages&lt;br&gt;4. Agent connect&lt;br&gt;5. Agent Read/Write/Wait" style="rounded=1;whiteSpace=wrap;html=1;labelBorderColor=none;strokeColor=#0e8088;fillColor=#b0e3e6;arcSize=0;align=left;" vertex="1" parent="1">
          <mxGeometry x="720" y="340" width="430" height="190" as="geometry" />
        </mxCell>
        <mxCell id="pnQwtb9DpmezKh93gruR-49" value="Master&lt;br&gt;Matrix&lt;br&gt;Pure&lt;br&gt;Server&lt;br&gt;&lt;br&gt;&lt;br&gt;&lt;font style=&quot;font-size: 10px;&quot;&gt;(Reuse &lt;br&gt;GPT-Academic)&lt;/font&gt;" style="rounded=1;whiteSpace=wrap;html=1;arcSize=0;" vertex="1" parent="1">
          <mxGeometry x="136" y="430" width="80" height="140" as="geometry" />
        </mxCell>
        <mxCell id="pnQwtb9DpmezKh93gruR-51" value="Super Agent 5" style="rounded=1;whiteSpace=wrap;html=1;" vertex="1" parent="1">
          <mxGeometry x="256" y="444.69" width="84" height="30" as="geometry" />
        </mxCell>
        <mxCell id="pnQwtb9DpmezKh93gruR-52" value="Super Agent 6" style="rounded=1;whiteSpace=wrap;html=1;" vertex="1" parent="1">
          <mxGeometry x="256" y="487.69" width="84" height="30" as="geometry" />
        </mxCell>
        <mxCell id="pnQwtb9DpmezKh93gruR-54" value="&lt;span style=&quot;color: rgba(0, 0, 0, 0.87); font-family: Roboto, -apple-system, BlinkMacSystemFont, Helvetica, Arial, sans-serif; font-size: 16px; font-style: normal; font-variant-ligatures: normal; font-variant-caps: normal; font-weight: 400; letter-spacing: normal; orphans: 2; text-indent: 0px; text-transform: none; widows: 2; word-spacing: 0px; -webkit-text-stroke-width: 0px; text-decoration-thickness: initial; text-decoration-style: initial; text-decoration-color: initial; float: none; display: inline !important;&quot;&gt;ASGI&lt;span&gt;&amp;nbsp;&lt;/span&gt;&lt;/span&gt;" style="text;whiteSpace=wrap;html=1;align=center;fillColor=#dae8fc;strokeColor=#6c8ebf;rotation=90;verticalAlign=middle;labelBackgroundColor=none;" vertex="1" parent="1">
          <mxGeometry x="156" y="490.32" width="130" height="19.37" as="geometry" />
        </mxCell>
        <mxCell id="pnQwtb9DpmezKh93gruR-55" value="" style="endArrow=classic;startArrow=classic;html=1;rounded=0;entryX=0.193;entryY=-0.031;entryDx=0;entryDy=0;entryPerimeter=0;strokeColor=#FF3333;" edge="1" parent="1" target="pnQwtb9DpmezKh93gruR-54">
          <mxGeometry width="50" height="50" relative="1" as="geometry">
            <mxPoint x="256" y="460" as="sourcePoint" />
            <mxPoint x="236" y="460" as="targetPoint" />
          </mxGeometry>
        </mxCell>
        <mxCell id="pnQwtb9DpmezKh93gruR-57" value="" style="endArrow=classic;startArrow=classic;html=1;rounded=0;entryX=0.448;entryY=0.001;entryDx=0;entryDy=0;entryPerimeter=0;strokeColor=#FF3333;" edge="1" parent="1">
          <mxGeometry width="50" height="50" relative="1" as="geometry">
            <mxPoint x="256" y="502" as="sourcePoint" />
            <mxPoint x="230.66562999999996" y="501.2449999999999" as="targetPoint" />
          </mxGeometry>
        </mxCell>
        <mxCell id="pnQwtb9DpmezKh93gruR-59" value="转发" style="text;whiteSpace=wrap;html=1;align=center;labelBackgroundColor=none;verticalAlign=middle;" vertex="1" parent="1">
          <mxGeometry x="271" y="425" width="50" height="20" as="geometry" />
        </mxCell>
        <mxCell id="pnQwtb9DpmezKh93gruR-60" value="转发" style="text;whiteSpace=wrap;html=1;align=center;labelBackgroundColor=none;verticalAlign=middle;" vertex="1" parent="1">
          <mxGeometry x="283" y="550" width="50" height="20" as="geometry" />
        </mxCell>
      </root>
    </mxGraphModel>
  </diagram>
</mxfile>
